<svg xmlns="http://www.w3.org/2000/svg" width="100mm" height="100mm" viewBox="0 0 354.331 354.331"><g transform="translate(0 -698.032)"><path d="M22.377 944.777c-7.056-7.804-10.399-18.555-13.06-28.734-.07-.264-.138-.528-.207-.793-2.5-9.71-4.46-20.115-2.406-29.9 1.98-9.437 9.546-16.775 13.714-25.47 6.97-14.539 9.869-30.19 18.843-44.549 0 0 .5-.79.749-1.164 4.51-6.8 10.718-12.4 16.98-17.633 2.408-2.013 7.836-5.224 7.836-5.224s7.814-12.64 11.755-18.939c6.277-10.035 11.035-21.228 18.938-30.04 6.31-7.036 13.827-13.257 22.204-17.633 8.058-4.208 17.046-7.33 26.122-7.836 9.72-.543 19.517 2.093 28.735 5.224 8.112 2.756 16.466 6.049 22.856 11.755 1.757 1.568 3.919 5.878 3.919 5.878s22.644-12.652 34.448-15.02c11.805-2.37 26.351-3.257 34.775 0 8.425 3.256 9.902 7.613 14.367 13.06 4.466 5.448 9.722 12.253 11.755 19.592.581 2.098 0 6.53 0 6.53s21.954 10.685 30.694 18.94c4.49 4.239 7.402 10.624 10.612 15.183 2.237 3.176 6.186 4.879 6.79 8.118.286 1.53-.357 3.556-1.116 5.268-.847 1.91-3.223 1.814-3.223 1.814-3.634 3.663-2.614 13.37-2.614 13.37s-.594 5.735-3.187 8.11c-2.54 2.326-5.686 1.473-8.162 3.888-1.972 3.71-3.245 4.834-4.978 6.941-4.946 6.016-20.897 10.449-20.897 10.449s-.507 3.135 0 4.571c.88 2.493 2.34 4.648 4.067 6.653 3.938 4.571 9.264 8.363 12.259 13.592 4.28 7.473 9.143 24.163 9.143 24.163s-18.17 34.976-32.653 47.673c-13.03 11.423-29.934 18.01-46.367 23.51-11.742 3.93-24.229 5.519-36.57 6.53-16.49 1.352-33.127.498-49.633-.653-31.083-2.167-63.16-1.945-92.733-11.755-15.322-5.082-29.67-11.847-42.158-23.83a32.34 32.34 0 01-1.597-1.639z" fill="#5a8d3e" fill-rule="evenodd" stroke="#000" stroke-width="1.829"/><path d="M33.399 957.016l13.06 20.244s36.4 11.093 54.857 15.673c15.332 3.805 30.639 8.326 46.367 9.796 19.944 1.865 40.532 3.065 60.08-1.306 8.37-1.871 23.51-10.449 23.51-10.449l12.559-14.522c-44.226 11.354-111.596 9.127-210.433-19.436z" fill="#5a8d3e" fill-rule="evenodd" stroke="#000" stroke-width="1.097"/><path d="M110.712 929.614c-2.878-2.694-1.819-5.672-1.306-8.49.715-3.93 3.054-7.62 5.877-10.448 3.345-3.351 7.817-5.68 12.368-6.986 10.905-3.125 22.942-2.699 33.999-1.504 12.489 1.35 22.884 7.996 35.265 10.123 15.274 2.623 47.673 4.244 47.673 4.244s18.776.39 28.08-.653c16.335-1.83 34.78-.487 48.327-9.795 2.339-1.608 2.82-1.84 4.782-1.88 2.93-.06 3.068 3.48 3.569 7.299.608 4.634-1.448 6.642-4.898 9.795-2.089 1.91-2.635 1.917-5.182 3.15-2.017.977-6.108 1.88-6.108 1.88s.87 7.383-.755 10.489c-1.815 3.468-5.563 5.782-9.14 7.371-8.429 3.746-27.329 4.344-27.329 4.344s-61.9-1.984-94.04-7.184c-9.277-1.5-18.12-5.226-27.428-6.53-14.458-2.026-33.096 4.753-43.754-5.225z" fill="#9f5935" stroke="#000" stroke-width="1.829"/><path d="M230.962 825.048c1.148-3.607 3.924-5.4 6.81-7.85 5.161-4.378 14.988-7.171 22.986-9.212 9.71-2.479 19.844-3.087 29.855-3.557 10.277-.482 20.838-1.577 30.857.763 6.249 1.46 13.23 3.277 17.464 8.097 1.753 1.997 3.056 4.581 2.393 7.603-.651 2.966-2.107 3.742-5.271 5.891-3.165 2.15-9.738 4.265-14.124 5.192-9.4 2.107-18.562 5.749-28.168 6.465-14.01 1.044-28.479-.177-42.484-2.424-4.144-.665-8.5-1.205-12.165-3.253-3.266-1.825-8.767-5.785-8.153-7.715z" fill="#fff" stroke="#000" stroke-width="1.829"/><path d="M125.676 821.354s24.655 14.499 38.328 18.01c9.411 2.416 19.419 2.766 29.092 1.847 14.086-1.339 27.063-2.233 36.833-12.468 4.669-4.892 7.978-9.791 6.464-16.163-.422-1.777-.413-4.888-2.26-5.35-1.847-.461-23.161-2.083-36.42-.191-16.452 2.347-31.605 10.823-48.024 13.392-7.914 1.238-24.013.923-24.013.923z" fill="#fff" stroke="#000" stroke-width="1.829"/><path d="M319.546 830.866c0 .857-18.226 7.629-34.938 7.184-11.461-.306-14.59 1.161-15.438-1.526-.22-.694-.502-2.635-.483-3.811.127-7.783 6.4-18.404 13.675-24.09 3.62-2.829 8.995-3.118 13.275-3.704 14.294-1.957 23.91 11.516 23.91 25.947z" stroke="#000" stroke-width="1.097"/><path d="M21.894 968.014l.227-9.213s3.27-1.65 5.03-2.1c2.494-.636 7.682-.805 7.682-.805s5.913 5.632 18.626 13.849c12.712 8.217 45.85 16.14 69.55 21.224 18.883 4.05 34.753 7.461 54.056 7.127 15.745-1.077 31.418-2.67 44.086-7.55 5.28-2.085 18.062-8.218 18.062-8.218s12.217 4.95 14.166 5.98c13.113 6.923 13.893 11.682 24.588 21.178 5.296 4.702 14.694 15.346 14.694 15.346l-271.375-2.824z" fill="#0446fc" stroke="#000" stroke-width="1.829"/><path d="M89.378 931.233s2.63 7.644 5.668 10.901c4.345 5.053 12.316 7.535 12.316 7.535" fill="none" stroke="#000" stroke-width="1.097" stroke-linecap="round"/><path d="M214.731 837.396s-15.287 3.755-29.714 3.756c-14.427 0-22.819-2.89-22.819-2.89.072-14.425 16.152-28.096 28.207-27.967 6.81.072 13.645 2.789 18.092 7.07 4.972 4.787 5.41 12.46 6.234 20.031z" stroke="#000" stroke-width="1.097"/><ellipse cx="180.903" cy="822.576" rx="4.156" ry="5.08" fill="#fff"/><circle cx="196.097" cy="829.897" r="7.158" fill="#fff"/><ellipse ry="3.232" rx="3.337" cy="834.284" cx="180.292" fill="#fff"/><ellipse ry="3.773" rx="3.087" cy="819.428" cx="284.743" fill="#fff"/><circle r="6.015" cy="824.137" cx="299.848" fill="#fff"/><ellipse cx="285.301" cy="830.269" rx="2.529" ry="2.45" fill="#fff"/><path d="M313.456 925.127c-7.4 3.694-26.895 7.022-40.44 7.289-22.226.437-43.323-.34-65.468-2.286-13.772-1.21-31.304-10.62-45.068-11.913-10.64-1-33.038 2.312-33.038 2.312M65.592 790.78c-4.943 8.008-5.685 20.969-8.24 31.365" fill="none" stroke="#000" stroke-width="1.097" stroke-linecap="round"/><path d="M199.125 740.179c3.812 6.295 5.941 13.736 3.035 24.892 7.79 5.041 5.034 7.971 9.11 13.838" fill="none" stroke="#000" stroke-width="1.097"/><path d="M295.465 764.581c-2.827-.987-9.524-3.607-14.533-4.069-26.249-2.423-50.012-2.021-79.262 4.396" fill="none" stroke="#000" stroke-width="1.097"/><path d="M202.03 764.903c-13.237-6.027-18.542-12.275-41.783-12.168-21.368.098-43.292 16.244-50.105 21.465M298.975 855.451c-13.993 2.603-24.944 5.353-43.656 3.114M243.139 852.253c3.435 2.083 14.526 5.468 20.408 14.041M232.037 826.866s1.908.336 2.857 1.796c2.337 3.595-2.982 8.354-6.204 11.183-8.505 5.55-18.214 6.313-27.145 7.29-15.793 1.729-32.148 2.523-47.548-1.249-9.881-2.42-27.428-13.387-27.428-13.387" fill="none" stroke="#000" stroke-width="1.097"/><path d="M230.71 829.825c.834-1.056.911-1.476 2.103-1.55.978-.062 1.92 1.218 2.142 2.224.164.737-.3 1.525-.734 2.142-1.058 1.505-4.306 3.45-4.306 3.45s-.038-5.21.796-6.266z" fill="#5a8d3e"/><path d="M126.365 821.03s-9.015-.04-12.857-2.899c-1.823-1.356-3.382-2.106-2.612-4.244.798-2.216 3.583-3.39 5.877-3.919 4.71-1.084 8.941.076 14.53-1.632 5.59-1.71 12.805-6.45 18.123-9.47 5.317-3.019 5.68-5.63 13.835-8.507 8.155-2.876 20.12-1.135 20.12-1.135" fill="none" stroke="#000" stroke-width="1.097"/><path d="M126.569 801.479s8.956-2.86 13.166-4.911c6.915-3.37 12.603-9.033 19.674-12.06 7.168-3.07 14.88-4.974 22.609-5.997 8.22-1.089 19.22-.68 24.873-.103 5.412.568 14.03 1.761 18.289 3.348 4.26 1.588 4.998 5.136 4.245 7.184-.753 2.048-2.76 1.255-4.49 1.55" fill="none" stroke="#000" stroke-width="1.097"/><path d="M235.22 807.193s1.346-2.15 1.307-3.347c-.122-3.723-2.913-7.239-4.735-10.122-2.363-3.741-7.64-2.87-9.796-3.919M233.924 796.221s18.147-5.656 27.827-7.15c11.206-1.73 22.67-3.02 33.959-1.96 11.616 1.092 22.264 4.832 33.381 8.375 4.378 1.395 9.803 5.4 9.803 5.4" fill="none" stroke="#000" stroke-width="1.097" stroke-linecap="round"/><path d="M240.464 784.945s23.108-6.531 35.001-7.303c12.854-.834 26.13-.546 38.53 2.939 5.764 1.62 16 8.163 16 8.163M176.887 870.59c35.702-12.026 38.912-21.54 45.987-27.663" fill="none" stroke="#000" stroke-width="1.097" stroke-linecap="round"/></g></svg>